<svg width="228" height="23" viewBox="0 0 228 23" fill="none" xmlns="http://www.w3.org/2000/svg">
<g clip-path="url(#clip0_50_607)">
<path d="M210.457 21.8816C210.457 21.375 210.868 20.9633 211.407 20.9633C211.945 20.9633 212.357 21.375 212.357 21.8816C212.357 22.3883 211.945 22.8316 211.407 22.8316C210.868 22.8316 210.457 22.42 210.457 21.8816ZM210.647 21.8816C210.647 22.2933 210.995 22.6416 211.438 22.6416C211.85 22.6416 212.198 22.325 212.198 21.8816C212.198 21.47 211.85 21.1533 211.438 21.1533C210.963 21.1533 210.647 21.5016 210.647 21.8816Z" fill="#E31837"/>
<path d="M211.882 22.4201H211.692L211.375 21.9451H211.185V22.4201H211.058V21.3751H211.533C211.628 21.3751 211.723 21.3751 211.787 21.4384C211.882 21.4701 211.913 21.5651 211.913 21.6601C211.913 21.8501 211.755 21.9451 211.565 21.9451L211.882 22.4201ZM211.375 21.8184C211.533 21.8184 211.723 21.8501 211.723 21.6601C211.723 21.5334 211.597 21.5017 211.47 21.5017H211.185V21.8184H211.375Z" fill="#E31837"/>
<path d="M206.878 22.8317C213.528 17.1317 222.87 11.59 228 9.595C227.208 9.08834 225.973 8.36 224.58 7.56834C217.962 9.75334 210.235 14.5983 203.332 20.0767C204.503 20.9633 205.738 21.8817 206.878 22.8317Z" fill="#E31837"/>
<path d="M203.838 7.34671C202.857 6.87171 201.78 6.42838 200.957 6.04838C198.455 7.28338 195.193 9.15171 191.077 12.0967C191.963 12.5717 192.913 13.1417 193.927 13.7117C197.093 11.3684 200.292 9.15171 203.838 7.34671Z" fill="#012169"/>
<path d="M209.76 4.62332C208.557 3.95832 204.377 2.40666 201.495 1.74166C200.64 2.05832 199.437 2.53332 198.614 2.88166C199.659 3.16666 203.554 4.21166 206.879 5.88999C207.734 5.47832 208.937 4.97166 209.76 4.62332Z" fill="#E31837"/>
<path d="M195.605 4.21172C191.9 5.92172 188.005 8.26505 185.883 9.62672C186.643 9.97505 187.403 10.2601 188.448 10.7667C193.135 7.60005 196.808 5.66839 198.265 5.03505C197.22 4.65505 196.238 4.40172 195.605 4.21172Z" fill="#012169"/>
<path d="M212.546 3.64172C213.401 3.35672 214.383 3.10339 215.238 2.85006C212.768 1.80506 209.665 0.696724 206.878 5.72205e-05C206.435 0.126724 205.105 0.475057 204.186 0.760057C205.136 1.04506 208.271 1.77339 212.546 3.64172ZM196.935 15.5484C197.948 16.1501 199.025 16.9734 200.07 17.6701C207.005 12.2867 213.845 8.13839 221.35 5.79506C220.305 5.25672 219.386 4.78172 218.215 4.21172C213.718 5.35172 206.023 8.42339 196.935 15.5484Z" fill="#E31837"/>
<path d="M0 21.1851H5.06667C7.63167 21.1851 8.835 19.8551 8.835 17.9867C8.835 16.4667 8.04333 15.4534 6.39667 15.1367C7.85333 14.7884 8.51833 13.9017 8.51833 12.6034C8.51833 10.9567 7.315 9.62673 4.75 9.62673H0.0316667V21.1851H0ZM4.40167 16.2767C5.35167 16.2767 6.01667 16.7517 6.01667 17.7017C6.01667 18.7151 5.38333 19.1267 4.40167 19.1267H2.755V16.2451H4.40167V16.2767ZM4.085 11.6534C5.035 11.6534 5.7 12.0651 5.7 13.0151C5.7 13.9651 5.06667 14.3767 4.085 14.3767H2.755V11.6534H4.085ZM19.0633 9.59506H16.2133L11.875 21.1851H14.7567L15.5483 18.7784H19.7283L20.52 21.1851H23.4333L19.0633 9.59506ZM17.6383 12.3817L19 16.6567H16.2133L17.6383 12.3817ZM37.8733 9.59506H35.245V17.3534L30.305 9.59506H27.36V21.1851H29.9883V13.4584L34.9283 21.1851H37.8733V9.59506ZM50.0017 21.1851L46.2017 15.2951V21.1851H43.3833V9.59506H46.2017V15.1684L49.8117 9.59506H52.9467L49.1467 15.1684L53.295 21.1851H50.0017ZM63.27 15.3901C63.27 17.7017 64.6633 19.1267 66.4683 19.1267C68.2733 19.1267 69.6667 17.7017 69.6667 15.3901C69.6667 13.0784 68.2733 11.6534 66.4683 11.6534C64.6633 11.6534 63.27 13.0784 63.27 15.3901ZM60.2933 15.3901C60.325 12.0017 62.7 9.34173 66.4683 9.34173C70.2367 9.34173 72.6117 12.0017 72.6433 15.3901C72.6117 18.7784 70.2367 21.4384 66.4683 21.4384C62.7 21.4384 60.325 18.7784 60.2933 15.3901ZM76.5067 21.1851H79.325V16.6251H82.9983V14.4084H79.325V11.8117H83.7583L84.265 9.59506H76.5067V21.1851ZM97.4067 9.59506H94.5567L90.2183 21.1851H93.1L93.8917 18.7784H98.0717L98.8633 21.1851H101.777L97.4067 9.59506ZM95.9817 12.3817L97.3433 16.6567H94.5567L95.9817 12.3817ZM118.497 9.59506H115.203L112.195 15.8651L109.187 9.59506H105.893V21.1851H108.427V13.4267L112.163 21.1851L115.9 13.4267V21.1851H118.528L118.497 9.59506ZM123.975 21.1851H131.892V18.9684H126.793V16.3717H130.815V14.2184H126.793V11.8117H131.448L131.955 9.59506H123.975V21.1851ZM142.627 21.1851H145.698L142.817 16.2767C144.4 15.8334 145.16 14.7251 145.16 13.1101C145.16 11.0201 143.893 9.62673 141.043 9.62673H136.578V21.2167H139.333V16.6567H140.093L142.627 21.1851ZM140.505 11.7484C141.677 11.7484 142.278 12.2551 142.278 13.2367C142.278 14.2184 141.677 14.7251 140.505 14.7251H139.302V11.7484H140.505ZM149.91 21.1851H152.728V9.62673H149.91V21.1851ZM166.598 18.0817C165.522 18.8417 164.572 19.0951 163.59 19.0951C161.437 19.0951 159.917 17.6067 159.917 15.3901C159.917 13.1734 161.405 11.6851 163.495 11.6851C164.445 11.6851 165.395 11.9384 166.44 12.6984V10.0701C165.49 9.53173 164.382 9.31006 163.147 9.31006C159.315 9.31006 156.908 11.9701 156.877 15.3584C156.908 18.7784 159.252 21.4067 163.147 21.4067C164.445 21.4067 165.553 21.1851 166.567 20.6467V18.0817H166.598ZM176.922 9.59506H174.072L169.733 21.1851H172.615L173.407 18.7784H177.587L178.378 21.1851H181.292L176.922 9.59506ZM175.497 12.3817L176.858 16.6567H174.072L175.497 12.3817Z" fill="#012169"/>
</g>
<defs>
<clipPath id="clip0_50_607">
<rect width="228" height="22.8317" fill="white"/>
</clipPath>
</defs>
</svg>
