<svg width="16" height="17" viewBox="0 0 16 17" fill="none" xmlns="http://www.w3.org/2000/svg">
<g clip-path="url(#clip0_56_402)">
<path d="M8 0.5C3.58175 0.5 0 4.08175 0 8.5C0 12.9185 3.58175 16.5 8 16.5C12.4185 16.5 16 12.9185 16 8.5C16 4.08175 12.4185 0.5 8 0.5ZM8 15.5157C4.14025 15.5157 1 12.3597 1 8.49997C1 4.64022 4.14025 1.49997 8 1.49997C11.8597 1.49997 15 4.64023 15 8.49997C15 12.3597 11.8597 15.5157 8 15.5157ZM10.8282 5.67175C10.633 5.4765 10.3165 5.4765 10.1213 5.67175L8 7.793L5.87875 5.67175C5.6835 5.4765 5.367 5.4765 5.1715 5.67175C4.97625 5.867 4.97625 6.1835 5.1715 6.37875L7.29275 8.5L5.1715 10.6213C4.97625 10.8162 4.97625 11.1333 5.1715 11.3283C5.36675 11.5235 5.68325 11.5235 5.87875 11.3283L8 9.20702L10.1213 11.3283C10.3165 11.5235 10.633 11.5235 10.8282 11.3283C11.0235 11.1333 11.0235 10.8162 10.8282 10.6213L8.707 8.5L10.8282 6.37875C11.0238 6.18325 11.0238 5.86675 10.8282 5.67175Z" fill="#A1A1AA"/>
</g>
<defs>
<clipPath id="clip0_56_402">
<rect width="16" height="16" fill="white" transform="translate(0 0.5)"/>
</clipPath>
</defs>
</svg>
