<svg width="35" height="36" viewBox="0 0 35 36" fill="none" xmlns="http://www.w3.org/2000/svg">
<path d="M31.4405 16.7463C31.8771 17.3581 32.0954 17.6655 32.0954 18.1179C32.0954 18.5718 31.8771 18.8777 31.4405 19.4896C29.4785 22.2415 24.4673 28.1719 17.7325 28.1719C10.9963 28.1719 5.98655 22.2401 4.02458 19.4896C3.58794 18.8777 3.36963 18.5703 3.36963 18.1179C3.36963 17.664 3.58794 17.3581 4.02458 16.7463C5.98655 13.9943 10.9978 8.06389 17.7325 8.06389C24.4687 8.06389 29.4785 13.9958 31.4405 16.7463Z" stroke="black" stroke-width="2.4375" stroke-linecap="round" stroke-linejoin="round"/>
<path d="M22.0413 18.1179C22.0413 16.9751 21.5873 15.8792 20.7793 15.0711C19.9712 14.263 18.8752 13.8091 17.7325 13.8091C16.5897 13.8091 15.4937 14.263 14.6856 15.0711C13.8776 15.8792 13.4236 16.9751 13.4236 18.1179C13.4236 19.2607 13.8776 20.3567 14.6856 21.1647C15.4937 21.9728 16.5897 22.4268 17.7325 22.4268C18.8752 22.4268 19.9712 21.9728 20.7793 21.1647C21.5873 20.3567 22.0413 19.2607 22.0413 18.1179Z" stroke="black" stroke-width="2.4375" stroke-linecap="round" stroke-linejoin="round"/>
</svg>
