<svg width="42" height="42" viewBox="0 0 42 42" fill="none" xmlns="http://www.w3.org/2000/svg">
<path d="M19.3849 22.8077H10.9467C10.4685 22.8077 10.068 22.6457 9.74508 22.3217C9.42218 21.9976 9.26016 21.5971 9.25904 21.1201C9.25791 20.643 9.41993 20.2425 9.74508 19.9185C10.0702 19.5945 10.4708 19.4324 10.9467 19.4324H19.3849V10.9942C19.3849 10.5161 19.5469 10.1155 19.8709 9.79264C20.1949 9.46974 20.5955 9.30773 21.0725 9.3066C21.5496 9.30548 21.9507 9.46749 22.2758 9.79264C22.601 10.1178 22.7624 10.5183 22.7602 10.9942V19.4324H31.1984C31.6765 19.4324 32.0776 19.5945 32.4016 19.9185C32.7257 20.2425 32.8871 20.643 32.886 21.1201C32.8849 21.5971 32.7229 21.9982 32.4 22.3234C32.0771 22.6485 31.6765 22.81 31.1984 22.8077H22.7602V31.2459C22.7602 31.7241 22.5981 32.1252 22.2741 32.4492C21.9501 32.7732 21.5496 32.9347 21.0725 32.9336C20.5955 32.9324 20.1949 32.7704 19.8709 32.4475C19.5469 32.1246 19.3849 31.7241 19.3849 31.2459V22.8077Z" fill="black"/>
</svg>
