<svg width="33" height="33" viewBox="0 0 33 33" fill="none" xmlns="http://www.w3.org/2000/svg">
<path d="M9.1582 28.8807C8.54617 28.8807 8.03556 28.6761 7.62636 28.2669C7.21716 27.8577 7.01212 27.3471 7.01123 26.7351V7.11211C7.01123 6.50097 7.21627 5.9908 7.62636 5.5816C8.03644 5.1724 8.54705 4.96736 9.1582 4.96648H19.6326L25.6112 10.945V26.7351C25.6112 27.3462 25.4066 27.8568 24.9974 28.2669C24.5882 28.677 24.0771 28.8816 23.4642 28.8807H9.1582ZM18.9683 11.6093V6.29504H9.1582C8.9536 6.29504 8.76583 6.38007 8.59488 6.55013C8.42394 6.72019 8.33891 6.90751 8.3398 7.11211V26.7351C8.3398 26.9388 8.42483 27.1261 8.59488 27.297C8.76494 27.468 8.95227 27.553 9.15687 27.5521H23.4655C23.6693 27.5521 23.8566 27.4671 24.0275 27.297C24.1985 27.127 24.2835 26.9392 24.2826 26.7337V11.6093H18.9683Z" fill="black"/>
</svg>
