<svg width="30" height="30" viewBox="0 0 30 30" fill="none" xmlns="http://www.w3.org/2000/svg">
<path d="M2.61084 14.7249C2.61084 8.96985 2.61084 6.09232 4.39816 4.30378C6.18792 2.51646 9.06423 2.51646 14.8193 2.51646C20.5744 2.51646 23.4519 2.51646 25.2392 4.30378C27.0278 6.09354 27.0278 8.96985 27.0278 14.7249C27.0278 20.48 27.0278 23.3575 25.2392 25.1448C23.4531 26.9334 20.5744 26.9334 14.8193 26.9334C9.06423 26.9334 6.1867 26.9334 4.39816 25.1448C2.61084 23.3587 2.61084 20.48 2.61084 14.7249Z" stroke="black" stroke-width="2.125"/>
<path d="M8.71509 17.1665L10.9089 14.5344C11.7782 13.4906 12.2128 12.9693 12.7842 12.9693C13.3567 12.9693 13.7914 13.4906 14.6606 14.5344L14.978 14.9153C15.8473 15.9591 16.2819 16.4804 16.8545 16.4804C17.427 16.4804 17.8604 15.9591 18.7297 14.9153L20.9235 12.2832" stroke="black" stroke-width="2.125" stroke-linecap="round"/>
</svg>
